<svg width="952" height="191" viewBox="0 0 952 191" fill="none" xmlns="http://www.w3.org/2000/svg">
<g filter="url(#filter0_d_8060_36819)">
<g filter="url(#filter1_i_8060_36819)">
<path d="M179.295 145.184H60.7695C57.9599 145.184 55.597 143.077 55.276 140.286L45.9668 59.3306L89.2636 73.9684C90.6008 74.4204 92.0744 73.9111 92.8469 72.7298L121.999 28.1562L150.083 72.6885C150.842 73.8916 152.323 74.4231 153.674 73.9771L198.031 59.3306L184.752 140.546C184.315 143.22 182.005 145.184 179.295 145.184Z" fill="#191B18"/>
</g>
<path d="M179.295 145.184H60.7695C57.9599 145.184 55.597 143.077 55.276 140.286L45.9668 59.3306L89.2636 73.9684C90.6008 74.4204 92.0744 73.9111 92.8469 72.7298L121.999 28.1562L150.083 72.6885C150.842 73.8916 152.323 74.4231 153.674 73.9771L198.031 59.3306L184.752 140.546C184.315 143.22 182.005 145.184 179.295 145.184Z" stroke="#6CFF99" stroke-width="10.368"/>
<path d="M54.1252 57.5884C54.1252 62.8267 49.8788 67.0732 44.6406 67.0732C39.4024 67.0732 35.1559 62.8267 35.1559 57.5884C35.1559 52.3501 39.4024 48.1037 44.6406 48.1037C49.8788 48.1037 54.1252 52.3501 54.1252 57.5884Z" fill="black" stroke="#6CFF99" stroke-width="4.64488"/>
<path d="M131.54 25.7955C131.54 31.0338 127.293 35.2802 122.055 35.2802C116.817 35.2802 112.57 31.0338 112.57 25.7955C112.57 20.5572 116.817 16.3107 122.055 16.3107C127.293 16.3107 131.54 20.5572 131.54 25.7955Z" fill="black" stroke="#6CFF99" stroke-width="4.64488"/>
<path d="M208.954 57.5884C208.954 62.8267 204.707 67.0732 199.469 67.0732C194.231 67.0732 189.985 62.8267 189.985 57.5884C189.985 52.3501 194.231 48.1037 199.469 48.1037C204.707 48.1037 208.954 52.3501 208.954 57.5884Z" fill="black" stroke="#6CFF99" stroke-width="4.64488"/>
<path d="M140.506 102.748L113.934 85.5279C111.874 84.1927 109.154 85.6714 109.154 88.1265V123.556C109.154 126.047 111.946 127.518 114.001 126.11L140.573 107.901C142.396 106.652 142.361 103.95 140.506 102.748Z" fill="white" stroke="url(#paint0_linear_8060_36819)" stroke-width="1.54829"/>
</g>
<path d="M252.595 73.0567C252.595 87.5692 260.749 96.5647 276.58 99.8002L290.129 102.559C296.006 103.756 298.288 106.276 298.288 111.194C298.288 116.828 292.771 120.307 284.014 120.307C275.383 120.307 270.586 116.711 270.586 110.236H251.276C251.276 126.904 264.11 137.573 283.897 137.573C304.282 137.573 317.714 126.422 317.714 109.273C317.714 95.2417 310.159 87.6907 294.328 84.4507L281.017 81.6922C274.78 80.3737 272.021 77.7367 272.021 72.3412C272.021 66.4642 277.061 62.8642 284.977 62.8642C292.289 62.8642 296.965 66.7027 296.965 72.9397H316.274C316.274 56.1502 304.282 45.5977 285.215 45.5977C266.149 45.5977 252.595 56.9872 252.595 73.0567Z" fill="white"/>
<path d="M346.493 136.016V91.4077H357.882V76.0582H346.493V57.4688H328.025V76.0582H316.631V91.4077H328.025V136.016H346.493Z" fill="white"/>
<path d="M401.415 76.0427C398.895 75.4397 396.496 75.2012 394.341 75.2012C386.304 75.2012 381.03 79.1612 378.51 85.0337L377.551 76.1597H360.163V136.001H378.631V109.977C378.631 98.1062 384.985 93.4307 395.538 93.4307H401.415V76.0427Z" fill="white"/>
<path d="M432.594 137.554C449.023 137.554 460.894 129.04 463.054 115.729H446.143C444.825 120.049 439.911 122.564 432.954 122.564C424.8 122.564 420.363 118.847 419.283 110.932L462.816 110.693V106.018C462.816 86.4697 451.062 74.1172 432.234 74.1172C414.126 74.1172 401.535 87.1897 401.535 105.896C401.535 124.364 414.486 137.554 432.594 137.554ZM432.355 89.1067C439.789 89.1067 444.465 93.1837 444.465 99.5422H419.521C420.961 92.3467 425.038 89.1067 432.355 89.1067Z" fill="white"/>
<path d="M485.838 137.554C494.829 137.554 502.745 133.598 504.662 128.081L505.863 135.997H522.171V100.982C522.171 83.8327 512.339 74.1172 494.951 74.1172C477.801 74.1172 466.65 82.9912 466.65 96.5452H482C482 91.1452 486.198 88.1482 493.992 88.1482C500.585 88.1482 504.185 91.2667 504.185 97.1437V98.1022L487.395 99.4207C473.004 100.501 465.21 107.336 465.21 118.37C465.21 130.12 473.126 137.554 485.838 137.554ZM492.314 123.883C486.675 123.883 484.038 121.844 484.038 117.529C484.038 113.69 486.914 111.895 494.951 111.175L504.302 110.333V113.573C504.302 120.409 499.388 123.883 492.314 123.883Z" fill="white"/>
<path d="M547.838 135.997V103.858C547.838 93.7867 553.233 90.9067 558.507 90.9067C564.384 90.9067 568.223 94.5067 568.223 101.941V135.997H586.691V103.858C586.691 93.6652 591.965 90.7852 597.243 90.7852C603.12 90.7852 607.076 94.3852 607.076 101.941V135.997H625.544V96.7837C625.544 83.1127 617.867 74.1172 602.4 74.1172C593.765 74.1172 586.691 78.3157 583.572 84.6697C580.094 78.3157 574.338 74.1172 565.343 74.1172C556.712 74.1172 550.835 78.0772 547.838 82.2712L546.636 76.0387H529.37V135.997H547.838Z" fill="white"/>
<path d="M673.579 137.46C695.764 137.46 712.311 124.387 715.429 104.601H695.283C692.884 113.353 684.852 118.753 673.935 118.753C659.665 118.753 650.791 108.318 650.791 91.6498C650.791 74.7433 659.548 64.5463 673.935 64.5463C684.609 64.5463 692.164 69.5863 694.801 78.4603H715.308C712.549 58.5523 696.601 45.8398 674.416 45.8398C647.916 45.8398 630.285 64.0693 630.285 91.7713C630.285 119.829 646.957 137.46 673.579 137.46Z" fill="#66FF99"/>
<path d="M738.572 136.016V45.5977H720.104V136.016H738.572Z" fill="#66FF99"/>
<path d="M764.594 137.554C773.585 137.554 781.501 133.598 783.418 128.081L784.619 135.997H800.927V100.982C800.927 83.8327 791.095 74.1172 773.707 74.1172C756.557 74.1172 745.406 82.9912 745.406 96.5452H760.756C760.756 91.1452 764.954 88.1482 772.748 88.1482C779.341 88.1482 782.941 91.2667 782.941 97.1437V98.1022L766.151 99.4207C751.76 100.501 743.966 107.336 743.966 118.37C743.966 130.12 751.882 137.554 764.594 137.554ZM771.07 123.883C765.431 123.883 762.794 121.844 762.794 117.529C762.794 113.69 765.67 111.895 773.707 111.175L783.058 110.333V113.573C783.058 120.409 778.144 123.883 771.07 123.883Z" fill="#66FF99"/>
<path d="M803.804 117.052C803.804 129.161 813.758 137.554 829.589 137.554C845.177 137.554 856.089 129.76 856.089 116.93C856.089 107.336 850.694 102.778 840.861 100.622L829.706 98.2237C825.512 97.2607 823.23 95.7037 823.23 92.9452C823.23 89.7097 825.872 87.5497 830.066 87.5497C834.503 87.5497 837.023 90.3082 837.023 94.3852H854.532C854.532 82.2712 844.817 74.1172 830.907 74.1172C816.516 74.1172 805.842 81.3127 805.842 93.7867C805.842 104.339 811.238 109.136 822.272 111.535L833.306 113.933C837.743 114.892 838.701 116.809 838.701 118.609C838.701 121.727 836.064 123.766 830.309 123.766C824.67 123.766 821.552 121.246 821.313 117.052H803.804Z" fill="#66FF99"/>
<path d="M878.158 136.016V103.157C878.158 95.7232 882.833 90.9262 890.146 90.9262C896.504 90.9262 900.698 95.8447 900.698 103.4V136.016H919.166V98.9632C919.166 83.2537 910.895 74.1367 896.621 74.1367C888.827 74.1367 881.992 77.1337 878.275 82.2907V45.5977H859.69V136.016H878.158Z" fill="#66FF99"/>
<defs>
<filter id="filter0_d_8060_36819" x="6.36048" y="1.3393" width="231.389" height="189.325" filterUnits="userSpaceOnUse" color-interpolation-filters="sRGB">
<feFlood flood-opacity="0" result="BackgroundImageFix"/>
<feColorMatrix in="SourceAlpha" type="matrix" values="0 0 0 0 0 0 0 0 0 0 0 0 0 0 0 0 0 0 127 0" result="hardAlpha"/>
<feOffset dy="13.824"/>
<feGaussianBlur stdDeviation="13.2365"/>
<feComposite in2="hardAlpha" operator="out"/>
<feColorMatrix type="matrix" values="0 0 0 0 0 0 0 0 0 0 0 0 0 0 0 0 0 0 1 0"/>
<feBlend mode="normal" in2="BackgroundImageFix" result="effect1_dropShadow_8060_36819"/>
<feBlend mode="normal" in="SourceGraphic" in2="effect1_dropShadow_8060_36819" result="shape"/>
</filter>
<filter id="filter1_i_8060_36819" x="39.8828" y="18.5645" width="164.644" height="166.363" filterUnits="userSpaceOnUse" color-interpolation-filters="sRGB">
<feFlood flood-opacity="0" result="BackgroundImageFix"/>
<feBlend mode="normal" in="SourceGraphic" in2="BackgroundImageFix" result="shape"/>
<feColorMatrix in="SourceAlpha" type="matrix" values="0 0 0 0 0 0 0 0 0 0 0 0 0 0 0 0 0 0 127 0" result="hardAlpha"/>
<feOffset dy="34.5601"/>
<feGaussianBlur stdDeviation="30.9658"/>
<feComposite in2="hardAlpha" operator="arithmetic" k2="-1" k3="1"/>
<feColorMatrix type="matrix" values="0 0 0 0 0 0 0 0 0 0 0 0 0 0 0 0 0 0 1 0"/>
<feBlend mode="normal" in2="shape" result="effect1_innerShadow_8060_36819"/>
</filter>
<linearGradient id="paint0_linear_8060_36819" x1="126.779" y1="82.4297" x2="126.779" y2="129.431" gradientUnits="userSpaceOnUse">
<stop stop-color="#66FF99"/>
<stop offset="1" stop-color="#3A9B5A"/>
</linearGradient>
</defs>
</svg>
